<?xml version="1.0" encoding="utf-8"?>
<!-- Generator: Adobe Illustrator 21.1.0, SVG Export Plug-In . SVG Version: 6.00 Build 0)  -->
<svg version="1.1" id="Capa_1" xmlns="http://www.w3.org/2000/svg" xmlns:xlink="http://www.w3.org/1999/xlink" x="0px" y="0px"
	 viewBox="0 0 512 512" style="enable-background:new 0 0 512 512;" xml:space="preserve">
<style type="text/css">
	.st0{fill:#FFFFFF;}
</style>
<path class="st0" d="M419.6,1H94.1C43,1,1,42.3,1,93.4v325.5C1,470,42.3,512,93.4,512h325.5c51.1,0,93.1-41.3,93.1-92.4V94.1
	C512,43,470.7,1,419.6,1z M401.9,327L401.9,327c-39.1,44.9-126.4,99.6-146.1,108c-19.9,8.4-17-5.3-16.1-9.9
	c0.5-2.7,2.6-15.9,2.6-15.9c0.7-4.8,1.2-12.2-0.5-16.8c-2.1-5.1-10.3-7.9-16.5-9.1c-89.5-12-155.7-74.6-155.7-149.2
	c0-83.2,83.5-150.9,186.1-150.9S441.7,150.9,441.7,234C441.7,267.3,428.8,297.3,401.9,327z"/>
<g id="g7966" transform="matrix(1.6639441,0,0,1.6639441,441.5933,393.76931)">
	<path id="path7968" class="st0" d="M-134.5-120.2h-7.9c-1.2,0-2.2,1-2.2,2.2v48.7c0,1.2,1,2.2,2.2,2.2h7.9c1.2,0,2.2-1,2.2-2.2
		V-118C-132.3-119.2-133.3-120.2-134.5-120.2"/>
</g>
<g id="g7970" transform="matrix(1.6639441,0,0,1.6639441,483.49956,393.76931)">
	<path id="path7972" class="st0" d="M-105.7-120.2h-7.9c-1.2,0-2.2,1-2.2,2.2v29l-22.3-30.2l-0.2-0.2l0,0l-0.2-0.2l0,0
		c0,0,0,0-0.2-0.2l0,0c0,0,0,0-0.2,0l0,0c0,0,0,0-0.2,0l0,0c0,0,0,0-0.2,0l0,0h-0.2l0,0c0,0,0,0-0.2,0c0,0,0,0-0.2,0c0,0,0,0-0.2,0
		c0,0,0,0-0.2,0l0,0h-7.9c-1.2,0-2.2,1-2.2,2.2v48.7c0,1.2,1,2.2,2.2,2.2h7.9c1.2,0,2.2-1,2.2-2.2v-29l22.3,30.2
		c0.2,0.2,0.3,0.3,0.5,0.5l0,0h0.2l0,0c0,0,0,0,0.2,0c0,0,0,0,0.2,0l0,0h0.2l0,0c0.2,0,0.3,0,0.5,0h7.9c1.2,0,2.2-1,2.2-2.2V-118
		C-103.5-119.2-104.5-120.2-105.7-120.2"/>
</g>
<g id="g7974" transform="matrix(1.6639441,0,0,1.6639441,426.91715,362.04388)">
	<path id="path7976" class="st0" d="M-144.6-60.3h-21.3V-99c0-1.2-1-2.2-2.2-2.2h-7.9c-1.2,0-2.2,1-2.2,2.2v48.7l0,0
		c0,0.5,0.2,1,0.7,1.5l0,0l0,0c0.3,0.3,0.9,0.7,1.5,0.7l0,0h31.4c1.2,0,2.2-1,2.2-2.2v-7.9C-142.3-59.3-143.4-60.3-144.6-60.3"/>
</g>
<g id="g7978" transform="matrix(1.6639441,0,0,1.6639441,517.12172,384.29914)">
	<path id="path7980" class="st0" d="M-82.5-102.3c1.2,0,2.2-1,2.2-2.2v-7.9c0-1.2-1-2.2-2.2-2.2h-31.4l0,0c-0.5,0-1.2,0.2-1.5,0.7
		l0,0l0,0c-0.3,0.3-0.7,0.9-0.7,1.5l0,0v48.7l0,0c0,0.5,0.2,1,0.7,1.5l0,0l0,0c0.3,0.3,0.9,0.7,1.5,0.7l0,0h31.4
		c1.2,0,2.2-1,2.2-2.2v-7.9c0-1.2-1-2.2-2.2-2.2h-21.3v-8.2h21.3c1.2,0,2.2-1,2.2-2.2v-7.9c0-1.2-1-2.2-2.2-2.2h-21.3v-8.2h21.3
		V-102.3z"/>
</g>
</svg>
