<?xml version="1.0" encoding="utf-8"?>
<!-- Generator: Adobe Illustrator 21.1.0, SVG Export Plug-In . SVG Version: 6.00 Build 0)  -->
<svg version="1.1" id="圖層_1" xmlns="http://www.w3.org/2000/svg" xmlns:xlink="http://www.w3.org/1999/xlink" x="0px" y="0px"
	 viewBox="0 0 224.3 88.2" style="enable-background:new 0 0 224.3 88.2;" xml:space="preserve">
<style type="text/css">
	.st0{fill-rule:evenodd;clip-rule:evenodd;fill:#FFFFFF;}
</style>
<g>
	<g>
		<path class="st0" d="M15.1,44.5h52.4v7H15.1V44.5L15.1,44.5z M82.4,47.8c0-9.3-8.5-17.8-17.9-17.8H0l0,0v58.2h15.1V66.1h49.4
			C72.7,66,82.4,61.8,82.4,47.8z"/>
		<g>
			<polygon class="st0" points="171.9,29.7 171.9,22.7 224.3,22.7 224.3,29.7 171.9,29.7 			"/>
			<polygon class="st0" points="194.6,0 201.6,0 201.6,52.4 194.6,52.4 194.6,0 			"/>
		</g>
		<g>
			<path class="st0" d="M104.6,51.5v-7H157v7H104.6L104.6,51.5z M153.9,29.9h-49.4V7.8H89.5V66l0,0h64.5c9.4,0,17.9-8.5,17.9-17.8
				C171.9,34.3,162.1,30.1,153.9,29.9z"/>
		</g>
	</g>
</g>
</svg>
